# This file uses meters as units for non-parametric coordinates.

mtllib GateBase.mtl
g default
v -350.000107 -274.762305 50.000000
v 350.000107 -274.762305 50.000000
v -350.000107 -274.762305 -50.000000
v 350.000107 -274.762305 -50.000000
v 262.500000 -274.762305 50.000000
v 262.500000 -274.762305 -50.000000
v -262.500000 -274.762305 50.000000
v -262.500000 -274.762305 -50.000000
v 350.000107 223.567674 50.000000
v 262.500000 223.567674 50.000000
v 262.500000 223.567674 -50.000000
v 350.000080 223.567674 -50.000000
v -350.000107 223.567674 50.000000
v -350.000080 223.567674 -50.000000
v -262.500000 223.567674 -50.000000
v -262.500000 223.567674 50.000000
v -350.000107 256.789674 -50.000000
v -350.000107 256.789674 50.000000
v -262.500000 256.789674 50.000000
v -262.500000 256.789674 -50.000000
v 350.000107 256.789674 -50.000000
v 262.500000 256.789674 -50.000000
v 262.500000 256.789674 50.000000
v 350.000107 256.789674 50.000000
v 253.198933 281.291930 60.629776
v 253.198933 281.291930 -60.629776
v 359.301174 281.291930 60.629776
v 359.301174 281.291930 -60.629776
v 253.198933 254.435418 60.629776
v 359.301174 254.435418 60.629776
v 253.198933 254.435418 -60.629776
v 359.301174 254.435418 -60.629776
v -361.399780 281.823148 63.028168
v -251.100327 281.823148 63.028168
v -251.100327 281.823148 -63.028168
v -361.399780 281.823148 -63.028168
v -361.399780 253.904201 -63.028168
v -361.399780 253.904201 63.028168
v -251.100327 253.904201 -63.028168
v -251.100327 253.904201 63.028168
vt 0.375000 0.000000
vt 0.625000 0.000000
vt 0.375000 0.250000
vt 0.625000 0.250000
vt 0.375000 0.500000
vt 0.625000 0.500000
vt 0.375000 0.750000
vt 0.625000 0.750000
vt 0.375000 1.000000
vt 0.625000 1.000000
vt 0.875000 0.000000
vt 0.875000 0.250000
vt 0.125000 0.000000
vt 0.125000 0.250000
vt 0.593750 0.500000
vt 0.593750 0.250000
vt 0.593750 0.500000
vt 0.593750 0.750000
vt 0.406250 0.500000
vt 0.406250 0.250000
vt 0.406250 0.500000
vt 0.406250 0.750000
vt 0.625000 0.225000
vt 0.593750 0.275000
vt 0.593750 0.525000
vt 0.625000 0.525000
vt 0.875000 0.225000
vt 0.375000 0.225000
vt 0.125000 0.225000
vt 0.375000 0.525000
vt 0.406250 0.525000
vt 0.406250 0.275000
vt 0.125000 0.240000
vt 0.375000 0.510000
vt 0.375000 0.240000
vt 0.406250 0.260000
vt 0.406250 0.510000
vt 0.625000 0.510000
vt 0.875000 0.240000
vt 0.593750 0.510000
vt 0.593750 0.260000
vt 0.625000 0.240000
vt 0.593750 0.260000
vt 0.625000 0.240000
vt 0.593750 0.510000
vt 0.625000 0.510000
vt 0.875000 0.240000
vt 0.125000 0.240000
vt 0.375000 0.240000
vt 0.406250 0.510000
vt 0.375000 0.510000
vt 0.406250 0.260000
vn 0.000000 0.000000 1.000000
vn 0.000000 0.000000 1.000000
vn 0.000000 0.000000 1.000000
vn 0.000000 0.000000 1.000000
vn 0.000000 1.000000 0.000000
vn 0.000000 1.000000 0.000000
vn 0.000000 1.000000 0.000000
vn 0.000000 1.000000 0.000000
vn 0.000000 0.000000 -1.000000
vn 0.000000 0.000000 -1.000000
vn 0.000000 0.000000 -1.000000
vn 0.000000 0.000000 -1.000000
vn 0.000000 -1.000000 0.000000
vn 0.000000 -1.000000 0.000000
vn 0.000000 -1.000000 0.000000
vn 0.000000 -1.000000 0.000000
vn 1.000000 0.000000 -0.000000
vn 1.000000 0.000000 -0.000000
vn 1.000000 0.000000 -0.000000
vn 1.000000 0.000000 -0.000000
vn -1.000000 0.000000 -0.000000
vn -1.000000 0.000000 -0.000000
vn -1.000000 0.000000 -0.000000
vn -1.000000 0.000000 -0.000000
vn 0.000000 0.000000 1.000000
vn 0.000000 0.000000 1.000000
vn 0.000000 0.000000 1.000000
vn 0.000000 0.000000 1.000000
vn 0.000000 1.000000 0.000000
vn 0.000000 1.000000 0.000000
vn 0.000000 1.000000 0.000000
vn 0.000000 1.000000 0.000000
vn 0.000000 0.000000 -1.000000
vn 0.000000 0.000000 -1.000000
vn 0.000000 0.000000 -1.000000
vn 0.000000 0.000000 -1.000000
vn 0.000000 -1.000000 0.000000
vn 0.000000 -1.000000 0.000000
vn 0.000000 -1.000000 0.000000
vn 0.000000 -1.000000 0.000000
vn 1.000000 0.000000 0.000000
vn 1.000000 0.000000 0.000000
vn 1.000000 0.000000 0.000000
vn 1.000000 0.000000 0.000000
vn -1.000000 0.000000 0.000000
vn -1.000000 0.000000 0.000000
vn -1.000000 0.000000 0.000000
vn -1.000000 0.000000 0.000000
vn 0.000000 0.000000 1.000000
vn 0.000000 0.000000 1.000000
vn 0.000000 0.000000 1.000000
vn 0.000000 0.000000 1.000000
vn -1.000000 0.000000 0.000000
vn -1.000000 0.000000 0.000000
vn -1.000000 0.000000 0.000000
vn -1.000000 0.000000 0.000000
vn 0.000000 0.000000 -1.000000
vn 0.000000 0.000000 -1.000000
vn 0.000000 0.000000 -1.000000
vn 0.000000 0.000000 -1.000000
vn 1.000000 0.000000 0.000000
vn 1.000000 0.000000 0.000000
vn 1.000000 0.000000 0.000000
vn 1.000000 0.000000 0.000000
vn -1.000000 0.000000 0.000000
vn -1.000000 0.000000 0.000000
vn -1.000000 0.000000 0.000000
vn -1.000000 0.000000 0.000000
vn 0.000000 0.000000 -1.000000
vn 0.000000 0.000000 -1.000000
vn 0.000000 0.000000 -1.000000
vn 0.000000 0.000000 -1.000000
vn 1.000000 0.000000 0.000000
vn 1.000000 0.000000 0.000000
vn 1.000000 0.000000 0.000000
vn 1.000000 0.000000 0.000000
vn 0.000000 0.000000 1.000000
vn 0.000000 0.000000 1.000000
vn 0.000000 0.000000 1.000000
vn 0.000000 0.000000 1.000000
vn -1.000000 0.000000 -0.000000
vn -1.000000 0.000000 -0.000000
vn 0.000000 0.000000 1.000000
vn 0.000000 0.000000 1.000000
vn 1.000000 0.000000 0.000000
vn 1.000000 0.000000 0.000000
vn 0.000000 0.000000 -1.000000
vn 0.000000 0.000000 -1.000000
vn 0.000000 0.000000 -1.000000
vn 0.000000 0.000000 -1.000000
vn -1.000000 0.000000 0.000000
vn -1.000000 0.000000 0.000000
vn 0.000000 0.000000 1.000000
vn 0.000000 0.000000 1.000000
vn 1.000000 0.000000 -0.000000
vn 1.000000 0.000000 -0.000000
vn 0.000000 -0.976341 -0.216237
vn 0.000000 -0.976341 -0.216237
vn 0.000000 -0.976341 -0.216237
vn 0.000000 -0.976341 -0.216237
vn 0.245378 -0.969427 0.000000
vn 0.245378 -0.969427 0.000000
vn 0.245378 -0.969427 0.000000
vn 0.245378 -0.969427 0.000000
vn 0.000000 -0.976341 0.216237
vn 0.000000 -0.976341 0.216237
vn 0.000000 -0.976341 0.216237
vn 0.000000 -0.976341 0.216237
vn -0.245378 -0.969428 0.000000
vn -0.245378 -0.969428 0.000000
vn -0.245378 -0.969428 0.000000
vn -0.245378 -0.969428 0.000000
vn 0.245381 -0.969427 0.000000
vn 0.245381 -0.969427 0.000000
vn 0.245381 -0.969427 0.000000
vn 0.245381 -0.969427 0.000000
vn 0.000000 -0.976340 0.216239
vn 0.000000 -0.976340 0.216239
vn 0.000000 -0.976340 0.216239
vn 0.000000 -0.976340 0.216239
vn -0.245381 -0.969427 0.000000
vn -0.245381 -0.969427 0.000000
vn -0.245381 -0.969427 0.000000
vn -0.245381 -0.969427 0.000000
vn 0.000000 -0.976340 -0.216239
vn 0.000000 -0.976340 -0.216239
vn 0.000000 -0.976340 -0.216239
vn 0.000000 -0.976340 -0.216239
s 1
g GateBase1
usemtl initialShadingGroup
f 1/1/1 7/19/2 16/32/3 13/28/4
s off
f 33/3/5 34/20/6 35/21/7 36/5/8
s 2
f 14/30/9 15/31/10 8/22/11 3/7/12
s off
f 3/7/13 8/22/14 7/19/15 1/9/16
s 3
f 2/2/17 4/11/18 12/27/19 9/23/20
s 4
f 3/13/21 1/1/22 13/28/23 14/29/24
s 5
f 9/23/25 10/24/26 5/15/27 2/2/28
s off
f 26/17/29 25/16/30 27/4/31 28/6/32
s 6
f 6/18/33 11/25/34 12/26/35 4/8/36
s off
f 5/15/37 6/18/38 4/8/39 2/10/40
s 7
f 15/31/41 16/32/42 7/19/43 8/22/44
s 8
f 10/24/45 11/25/46 6/18/47 5/15/48
s off
f 25/16/49 29/43/50 30/44/51 27/4/52
f 25/16/53 26/17/54 31/45/55 29/43/56
f 32/46/57 31/45/58 26/17/59 28/6/60
f 30/44/61 32/47/62 28/12/63 27/4/64
f 37/48/65 38/49/66 33/3/67 36/14/68
f 36/5/69 35/21/70 39/50/71 37/51/72
f 35/21/73 34/20/74 40/52/75 39/50/76
f 38/49/77 40/52/78 34/20/79 33/3/80
s 4
f 14/29/24 13/28/23 18/35/81 17/33/82
s 1
f 13/28/4 16/32/3 19/36/83 18/35/84
s 7
f 20/37/85 19/36/86 16/32/42 15/31/41
s 2
f 17/34/87 20/37/88 15/31/10 14/30/9
s 6
f 12/26/35 11/25/34 22/40/89 21/38/90
s 8
f 23/41/91 22/40/92 11/25/46 10/24/45
s 5
f 24/42/93 23/41/94 10/24/26 9/23/25
s 3
f 9/23/20 12/27/19 21/39/95 24/42/96
s off
f 23/41/97 24/42/98 30/44/99 29/43/100
f 22/40/101 23/41/102 29/43/103 31/45/104
f 21/38/105 22/40/106 31/45/107 32/46/108
f 24/42/109 21/39/110 32/47/111 30/44/112
f 17/33/113 18/35/114 38/49/115 37/48/116
f 20/37/117 17/34/118 37/51/119 39/50/120
f 19/36/121 20/37/122 39/50/123 40/52/124
f 18/35/125 19/36/126 40/52/127 38/49/128
