# This file uses centimeters as units for non-parametric coordinates.

mtllib HedgeCorner.mtl
g default
v -1.104074 -0.495379 0.188092
v 1.895926 -0.495379 0.188092
v -1.104074 1.504621 0.188092
v 1.895926 1.504621 0.188092
v -1.104074 1.504621 -0.188092
v 1.895926 1.504621 -0.188092
v -1.104074 -0.495379 -0.188092
v 1.895926 -0.495379 -0.188092
v -0.732801 -0.495379 0.188092
v -0.732801 1.504621 0.188092
v -0.732801 1.504621 -0.188092
v -0.732801 -0.495379 -0.188092
v -1.104074 -0.495379 2.811908
v -0.732801 -0.495379 2.811908
v -0.732801 1.504621 2.811908
v -1.104074 1.504621 2.811908
vt 0.375000 0.000000
vt 0.625000 0.000000
vt 0.375000 0.250000
vt 0.625000 0.250000
vt 0.375000 0.500000
vt 0.625000 0.500000
vt 0.375000 0.750000
vt 0.625000 0.750000
vt 0.375000 1.000000
vt 0.625000 1.000000
vt 0.875000 0.000000
vt 0.875000 0.250000
vt 0.125000 0.000000
vt 0.125000 0.250000
vt 0.405940 0.000000
vt 0.405940 1.000000
vt 0.405940 0.250000
vt 0.405940 0.500000
vt 0.405940 0.750000
vt 0.375000 0.000000
vt 0.405940 0.000000
vt 0.405940 0.250000
vt 0.375000 0.250000
vn -0.973823 -0.180778 0.137797
vn 0.973823 -0.180778 0.137797
vn 0.973823 0.180778 0.137797
vn -0.973823 0.180778 0.137797
vn -0.983202 0.182519 0.000000
vn 0.679737 0.272368 0.681009
vn 0.000000 0.184850 -0.982767
vn -0.705604 0.130986 -0.696395
vn 0.000000 -0.184850 -0.982767
vn -0.705604 -0.130986 -0.696395
vn 0.679737 -0.272368 0.681009
vn -0.983202 -0.182519 0.000000
vn 0.139268 -0.183049 0.973189
vn 0.139268 -0.183049 -0.973189
vn 0.139268 0.183049 -0.973189
vn 0.139268 0.183049 0.973189
s 1
g Corner_Hedge
usemtl initialShadingGroup
f 13/20/1 14/21/2 15/22/3 16/23/4
f 3/3/5 10/17/6 11/18/7 5/5/8
f 5/5/8 11/18/7 12/19/9 7/7/10
f 7/7/10 12/19/9 9/16/11 1/9/12
f 2/2/13 8/11/14 6/12/15 4/4/16
f 7/13/10 1/1/12 3/3/5 5/14/8
f 10/17/6 9/15/11 2/2/13 4/4/16
f 11/18/7 10/17/6 4/4/16 6/6/15
f 12/19/9 11/18/7 6/6/15 8/8/14
f 9/16/11 12/19/9 8/8/14 2/10/13
f 1/1/12 9/15/11 14/21/2 13/20/1
f 9/15/11 10/17/6 15/22/3 14/21/2
f 10/17/6 3/3/5 16/23/4 15/22/3
f 3/3/5 1/1/12 13/20/1 16/23/4
